<svg version="1.1" id="Layer_1" xmlns="http://www.w3.org/2000/svg" xmlns:xlink="http://www.w3.org/1999/xlink" x="0px" y="0px" viewBox="0 0 500 500" style="width: 151px;" xml:space="preserve" data-imageid="product-manager-8" imageName="Product Manager" class="illustrations_image">
<style type="text/css">
	.st0_product-manager-8{fill:#FF9494;}
	.st1_product-manager-8{fill:url(#SVGID_1_);}
	.st2_product-manager-8{fill:#FFB164;}
	.st3_product-manager-8{fill:#F2F2F2;}
	.st4_product-manager-8{opacity:0.1;enable-background:new    ;}
	.st5_product-manager-8{opacity:0.5;enable-background:new    ;}
	.st6_product-manager-8{fill:#68E1FD;}
	.st7_product-manager-8{opacity:0.3;enable-background:new    ;}
	.st8_product-manager-8{fill:url(#SVGID_00000090993792542802947250000011803232830493405113_);}
	.st9_product-manager-8{opacity:0.19;enable-background:new    ;}
	.st10_product-manager-8{fill:#297600;}
	.st11_product-manager-8{fill:#5FAD00;}
	.st12_product-manager-8{fill:url(#SVGID_00000021095919258808792100000005197050796436175244_);}
	.st13_product-manager-8{fill:#EA7554;}
	.st14_product-manager-8{opacity:0.55;}
	.st15_product-manager-8{fill:#FFAC99;}
</style>
<path id="field_product-manager-8" class="st0_product-manager-8" d="M242.9,413.4L21.1,282.3c-7.1-4-13.1-10.5-6.2-14.7l222.6-128.3c3.3-2.1,8.4-3.4,11.8-1.5&#10;&#9;l232.8,135.1c7.1,4.1,8.3,15.6,1.3,19.7L272.2,413.2C263.2,418.4,252,418.5,242.9,413.4z"/>
<g id="book-shelf_product-manager-8">
	
		<linearGradient id="SVGID_1_-product-manager-8" gradientUnits="userSpaceOnUse" x1="414.6296" y1="226.6374" x2="366.1296" y2="197.6674" gradientTransform="matrix(1 0 0 -1 0 502)">
		<stop offset="0" style="stop-color:#000000"/>
		<stop offset="1" style="stop-color:#FF9494;stop-opacity:0"/>
	</linearGradient>
	<path class="st1_product-manager-8" d="M402.4,258c-18.9,11-32.5,18.5-61.6,35.1c22,13.4,39.1,25.7,41.6,27.2l65.5-38.4&#10;&#9;&#9;C442.8,279.2,426,269.7,402.4,258z"/>
	<polygon class="st2_product-manager-8" points="447.9,281.9 406.5,258 384,270.8 425.8,295 &#9;"/>
	<polyline class="st3_product-manager-8" points="404.5,272.3 404.5,277.1 424.3,288.3 435.1,281.8 435.1,277.7 &#9;"/>
	<polygon class="st3_product-manager-8" points="435.1,277.7 415.3,266.2 404.5,272.3 424.5,283.9 &#9;"/>
	<polygon class="st4_product-manager-8" points="435.1,277.7 415.3,266.2 404.5,272.3 424.5,283.9 &#9;"/>
	<polygon class="st2_product-manager-8" points="407.1,174.1 384.1,162.8 384.1,271 407.1,258 &#9;"/>
	<polygon class="st5_product-manager-8" points="407.1,174.1 384.1,162.8 384.1,271 407.1,258 &#9;"/>
	<polygon class="st2_product-manager-8" points="447.9,208.3 406.5,184.4 384,197.2 425.8,221.3 &#9;"/>
	<polygon class="st6_product-manager-8 targetColor" points="420.1,196 432.8,188.7 436.9,190.9 424.2,199 &#9;" style="fill: rgb(104, 225, 253);"/>
	<polygon class="st4_product-manager-8" points="420.1,196 432.8,188.7 436.9,190.9 424.2,199 &#9;"/>
	<polyline class="st3_product-manager-8" points="424,198 420.1,196 420.1,211.9 424,214.1 &#9;"/>
	<polygon class="st6_product-manager-8 targetColor" points="424,198 424,214.1 436.9,206.9 436.9,190.9 &#9;" style="fill: rgb(104, 225, 253);"/>
	<polygon class="st2_product-manager-8" points="448,173.9 406.6,150 384.1,162.8 425.8,186.9 &#9;"/>
	<polygon class="st2_product-manager-8" points="448,244.8 406.6,221 384.1,233.8 425.8,257.9 &#9;"/>
	<polygon class="st2_product-manager-8" points="425.8,186.9 448,173.9 447.9,281.9 425.8,295 &#9;"/>
	<polygon class="st7_product-manager-8" points="425.8,186.9 448,173.9 447.9,281.9 425.8,295 &#9;"/>
	<polygon class="st6_product-manager-8 targetColor" points="387.6,217.7 398.8,211.2 402.4,213.2 391.2,220.3 &#9;" style="fill: rgb(104, 225, 253);"/>
	<polygon class="st4_product-manager-8" points="387.6,217.7 398.8,211.2 402.4,213.2 391.2,220.3 &#9;"/>
	<polygon class="st6_product-manager-8 targetColor" points="391.1,219.4 391.1,233.6 402.4,227.3 402.4,213.2 &#9;" style="fill: rgb(104, 225, 253);"/>
	<polyline class="st3_product-manager-8" points="391.1,219.4 387.6,217.7 387.6,231.7 391.1,233.6 &#9;"/>
	<polygon class="st6_product-manager-8 targetColor" points="391.9,218.5 404.5,211.1 408.6,213.4 395.9,221.5 &#9;" style="fill: rgb(104, 225, 253);"/>
	<polygon class="st4_product-manager-8" points="391.9,218.5 404.5,211.1 408.6,213.4 395.9,221.5 &#9;"/>
	<polygon class="st6_product-manager-8 targetColor" points="395.8,220.5 395.8,236.6 408.6,229.4 408.6,213.4 &#9;" style="fill: rgb(104, 225, 253);"/>
	<polyline class="st3_product-manager-8" points="395.8,220.5 391.9,218.5 391.9,234.4 395.8,236.6 &#9;"/>
</g>
<g id="plant_product-manager-8">
	
		<linearGradient id="SVGID_00000097486927733771332390000005144020674458935453_-product-manager-8" gradientUnits="userSpaceOnUse" x1="76.3525" y1="228.8855" x2="52.5825" y2="215.4155" gradientTransform="matrix(1 0 0 -1 0 502)">
		<stop offset="0" style="stop-color:#000000"/>
		<stop offset="1" style="stop-color:#FF9494;stop-opacity:0"/>
	</linearGradient>
	<path style="fill:url(#SVGID_00000097486927733771332390000005144020674458935453_);" d="M53.8,296.5L86.5,278l-20.7-9.3L38.3,284&#10;&#9;&#9;C43.2,288.5,48.6,292.4,53.8,296.5z"/>
	<polyline class="st6_product-manager-8 targetColor" points="57.9,257.4 57.9,275 86.5,275 86.5,257.4 &#9;" style="fill: rgb(104, 225, 253);"/>
	<ellipse class="st6_product-manager-8 targetColor" cx="72.2" cy="257.4" rx="14.3" ry="7" style="fill: rgb(104, 225, 253);"/>
	<ellipse class="st9_product-manager-8" cx="72.2" cy="257.4" rx="14.3" ry="7"/>
	<ellipse class="st6_product-manager-8 targetColor" cx="72.2" cy="275.7" rx="14.3" ry="7" style="fill: rgb(104, 225, 253);"/>
	<path class="st10_product-manager-8" d="M88.2,216.3c-3-1.2-7.2-5.3-10.8-5.2c-1.4,3.4-1.8,7.4-2.2,10.8c-0.7,6-0.8,12-0.4,18.1&#10;&#9;&#9;c0.1,1.3,0.2,2.7,0.3,4c0,0.4,0.1,0.8,0.3,1.1v14c0,0.2,0.2,0.4,0.4,0.4c0.2,0,0.4-0.2,0.4-0.4c0-4.5,0-9,0-13.4&#10;&#9;&#9;c1.4-0.5,2.8-1.1,4.1-1.9c2.7-1.7,4.7-4.2,5.8-7.2c2.3-6.4,0.8-13.6,3-19.9C88.8,216.6,88.5,216.5,88.2,216.3z"/>
	<path class="st11_product-manager-8" d="M82,205.8c-1.7,1-3.1,2.5-4.1,4.2c-0.2,0.4-0.5,0.8-0.6,1.2l-0.1,0.3l0,0c-0.3,0.7-0.5,1.5-0.7,2.2&#10;&#9;&#9;c0.3-0.6,0.9-1,1.5-1.2c0.7-0.3,1.6-0.4,2.4-0.2c0.8,0.3,1.5,0.7,2.2,1.2c1,0.6,2,1.3,3,2c4.7,3,11,3.3,14.7-1.1&#10;&#9;&#9;c0.1-0.2,0.1-0.4,0.1-0.5C100.9,210.8,92.5,199.7,82,205.8z"/>
	<path class="st10_product-manager-8" d="M98.2,216.2c0.2-0.1,0.4-0.3,0.6-0.4c0-0.1,0-0.3-0.1-0.3c-2.9-2.9-5.9-5.8-9.8-7.3c-2.8-1.1-5.8-1.4-8.8-0.9&#10;&#9;&#9;c-0.3,0.4-0.6,0.8-0.9,1.1c3.2-1.1,7.2-0.4,10.1,0.8c3.4,1.5,6.2,4.1,8.8,6.8C98.1,216.1,98.1,216.2,98.2,216.2z"/>
	<path class="st10_product-manager-8" d="M50.2,222.6c-4.2,2.2-6.7,6.7-6.4,11.4c0.3,8.4,14.2,0.2,17.9-6.9c3.7-7.1,4.3,3,4.3,3"/>
	<path class="st11_product-manager-8" d="M62.7,219.6c-2.6,0-5.2,0.3-7.7,1.1c-1.7,0.4-3.3,1-4.8,1.9c0.9,0.6,1.8,1.1,2.8,1.5c1.7,0.7,3.6,1.6,4.5,3.2&#10;&#9;&#9;c0.2,0.4,0.4,0.8,0.5,1.3c0.8,2.8,0.1,6.1,1.3,8.9s3.5,5.2,6.7,5.4c3.9,0.2,5.7-3.5,6.5-6.8s1.8-7.7,0.6-11&#10;&#9;&#9;C71.7,221.2,66.4,219.8,62.7,219.6z"/>
	<path class="st10_product-manager-8" d="M67.9,232.8c-1.6-5.3-5.1-10.3-10.2-12.7h-0.2l-0.2,0.1l-0.9,0.2c5.9,2.2,9.7,8,11.2,14&#10;&#9;&#9;c1.9,7.6,1.3,15.9,1.3,23.8c0,0.2,0.2,0.4,0.4,0.4c0.2,0,0.4-0.2,0.4-0.4C69.6,249.9,70.4,240.9,67.9,232.8z"/>
</g>
<g id="board_product-manager-8">
	<path class="st6_product-manager-8 targetColor" d="M128.8,171.7v99.9c0,3.2,2.6,5.7,5.7,5.7c1,0,2-0.3,2.9-0.8L279,194.3c2.7-1.6,4.4-4.4,4.4-7.6V90.1&#10;&#9;&#9;c0-4-3.2-7.2-7.3-7.2c-1.3,0-2.5,0.3-3.6,1l-139.3,80.3C130.5,165.7,128.8,168.6,128.8,171.7z" style="fill: rgb(104, 225, 253);"/>
	<rect x="152.2" y="156.9" width="1" height="107.8"/>
	<rect x="178.3" y="140.9" width="1" height="107.8"/>
	<rect x="199.3" y="129.8" width="1" height="107.8"/>
	<rect x="225.5" y="114.4" width="1" height="107.8"/>
	<polygon class="st0_product-manager-8" points="138,174.5 138,185 152.3,177.6 152.3,167.3 &#9;"/>
	<polygon class="st2_product-manager-8" points="152.3,167.3 152.3,177.7 166.7,170.3 166.7,160 &#9;"/>
	<polygon class="st0_product-manager-8" points="152.3,198.2 152.3,208.6 166.7,201.3 166.7,191 &#9;"/>
	<polygon class="st2_product-manager-8" points="166.7,190.9 166.7,201.4 200.3,184.1 199.8,174.2 &#9;"/>
	<polygon class="st0_product-manager-8" points="164.5,230.7 164.5,241.1 178.8,233.8 178.8,223.5 &#9;"/>
	<polygon class="st2_product-manager-8" points="178.8,223.4 178.8,233.9 193.2,226.5 193.2,216.2 &#9;"/>
	<polygon class="st0_product-manager-8" points="185.5,149 185.5,159.4 199.8,152 199.8,141.8 &#9;"/>
	<polygon class="st2_product-manager-8" points="199.8,141.7 199.8,152.1 214.2,144.8 214.2,134.5 &#9;"/>
	<polygon class="st0_product-manager-8" points="199.8,213.8 199.8,223.3 213,216.6 213,207.1 &#9;"/>
	<polygon class="st2_product-manager-8" points="213,207.1 213,216.6 226.1,209.9 226.1,200.5 &#9;"/>
	<polygon class="st3_product-manager-8" points="232.6,117.8 232.6,136.1 239.6,132.3 239.6,113.8 &#9;"/>
	<path class="st3_product-manager-8" d="M265.4,115.1v-14.7l-10.8,6.2v14.7C258.2,119.4,261.9,117.3,265.4,115.1z"/>
	<path class="st3_product-manager-8" d="M246.2,131.8v11.5l10.8-5.9v-11.7C253.5,127.9,249.9,129.9,246.2,131.8z"/>
	<path class="st3_product-manager-8" d="M262.5,140.6v11.5l10.8-5.9v-11.7C269.8,136.7,266.1,138.7,262.5,140.6z"/>
	<path class="st2_product-manager-8" d="M235,158.2v14.3l13.5-7.4v-14.6C244.1,153.3,239.6,155.8,235,158.2z"/>
	<polygon class="st0_product-manager-8" points="236.1,181.9 236.1,200.1 243,196.4 243,177.9 &#9;"/>
</g>
<g id="person_product-manager-8">
	
		<linearGradient id="SVGID_00000181072207003289597520000016740082575908895158_-product-manager-8" gradientUnits="userSpaceOnUse" x1="282.1711" y1="173.5187" x2="242.631" y2="142.6687" gradientTransform="matrix(1 0 0 -1 0 502)">
		<stop offset="0" style="stop-color:#000000"/>
		<stop offset="1" style="stop-color:#FF9494;stop-opacity:0"/>
	</linearGradient>
	<path style="fill:url(#SVGID_00000181072207003289597520000016740082575908895158_);" d="M254.7,332.2&#10;&#9;&#9;c-14.5,8.5-24.9,14.1-47.2,26.9c16.9,10.3,30,19.7,31.9,20.8l50.1-29.4C285.6,348.4,272.7,341.1,254.7,332.2z"/>
	<path class="st13_product-manager-8" d="M281.8,324.9c0,0,4.1,5.7,3.8,9.1s-5.6,9-6.8,11.4s-1.5,3.4,0,5.2s14.4-9.5,14.7-11.3s-1.8-8.7-1.8-8.7&#10;&#9;&#9;l5.7,7.2l4.2-2.5l-8.8-14.9"/>
	<path d="M280.1,350.8c0.4-0.4,10.6-3.9,10.6-3.9s4.8-5,4.7-6.9s-1.9-9.5-3.7-9.4s-2,10.1-2,10.1L280.1,350.8z"/>
	<path class="st13_product-manager-8" d="M268,334.4l-1.3,15.3c0,0-3.3,2.4-4.1,2.2s-3.2-0.8-3.3-1.2s1.2-10.8,0.8-11.1s-5.4,8-7,8.1&#10;&#9;&#9;s-13.7-6.9-12.6-9.5s7-1.3,9.9-1.3s6.9-1.7,9-6.6"/>
	<path class="st11_product-manager-8" d="M260.3,293l-7.4,39.2c0,0,4.3,5.6,19.5,4.9l11.4-27.8"/>
	<path class="st11_product-manager-8" d="M257,231.5c0,0-11.4,16.6-7.9,43.6c3.1,23.9,27,52,27,52s7.1,3.1,22-10.9l-16.4-26c0,0,16-37-2.9-60.5"/>
	<g class="st14_product-manager-8">
		<path class="st3_product-manager-8" d="M214,211.7c-5.8-0.5-9.8-8.3-9-17.9s6-16.6,11.8-16.1s9.8,8.3,9,17.9S219.9,212.2,214,211.7z M216.6,181&#10;&#9;&#9;&#9;c-3.9-0.3-7.8,5.7-8.4,13.2s2.1,14.1,6.1,14.4s7.8-5.7,8.4-13.2S220.6,181.3,216.6,181L216.6,181z"/>
	</g>
	<path class="st15_product-manager-8" d="M224.9,199.6c0.1-2.1-3.3-2.1-3.3,0c0,1.1,0,2.2,0,3.4c-0.1-0.2-0.3-0.5-0.4-0.7c-1.3-3.1-2.3-6.3-2.9-9.6&#10;&#9;&#9;c-0.4-2.1-3.5-1.2-3.2,0.9c0.2,1.6,0.6,3.2,1,4.8l-0.3-0.1c-1.1-0.4-2.4,0.3-2.7,1.4c0,0,0,0.1,0,0.1c-0.2,0.5-0.2,1.1-0.1,1.6&#10;&#9;&#9;h-0.2c-1,0.3-1.6,1.1-1.7,2.1c0,0.6,0.1,1.1,0.4,1.6c-0.4,0.3-0.7,0.8-0.8,1.3c-0.1,1.2,0.4,2.4,1.4,3.1c1.1,0.9,2.4,2.2,3.4,3.2&#10;&#9;&#9;c1.4,1.3,2.9,2.7,4.2,3.7s3.4-2.5,3.4-3.6c0.8,0.3,1.7-0.2,1.9-1c0.1-0.2,0.1-0.4,0.1-0.6C224.9,207.3,224.8,203.4,224.9,199.6z"/>
	<path d="M218.2,203.1c-0.8-1.6-1.5-3.3-2.2-5c-0.1-0.4-0.7-0.2-0.6,0.2c0.7,1.7,1.4,3.5,2.2,5.1&#10;&#9;&#9;C217.9,203.8,218.4,203.5,218.2,203.1z"/>
	<path class="st13_product-manager-8" d="M258.8,194.8c0,0-5.6,5-7.7,8.5s-10.8,13-14.3,10.1s-9.9-8.3-9.9-8.3s-9,6.2-8.1,12.6c0,0,8,16.3,20.4,12.7&#10;&#9;&#9;s15.5-8.3,15.5-8.3l1.9,10.6c0,0,15.4,4.8,22.6-2.3c0,0,4.7-30.5,1.2-35"/>
	<path class="st15_product-manager-8" d="M257.1,176.3c-0.1,0.4-0.4,11.4,3.4,12.4s10.1-1.6,11.8-5.1s-0.7-14.6-6.6-15.3S258.1,173.1,257.1,176.3z"/>
	<path d="M261.6,178.4c2.5,1.7,0.9,4.9-0.1,6.9c-0.8,1.6-1.1,3.3-1.1,5c0,1.6-0.5,3.2-1.6,4.4c-0.8,1-1.5,2.2-2.1,3.4&#10;&#9;&#9;c5.4,1.2,11.1,0.9,16.6,0.2c4.5-0.4,9-1,13.5-1.8c0-1-0.3-1.9-0.6-2.8c-1.1-2.4-2.8-3.7-2.4-6.6c0.3-2.2,0.9-4.4,0.1-6.6&#10;&#9;&#9;s-2.7-3.3-4.5-4.6c-0.5-0.4-1-0.8-1.5-1.3l-0.4-0.6c-1.1-1.9-1.9-4.1-3.3-5.7c-1.5-1.5-3.3-2.4-5.4-2.7c-4.3-0.8-8.7,0.2-12.2,2.8&#10;&#9;&#9;c0,0-3.2,3.1-2.2,6.4S259.4,176.9,261.6,178.4z"/>
	<path d="M262.5,307.3c4.2,7,10.9,17.6,13.7,19.9l-3.6,10c0,0-15.1-21.3-13.7-36C258.8,301.1,260.3,303.7,262.5,307.3"/>
	<path d="M281.5,289c-4.2-8.8-6.5-18.4-6.8-28.1c0-0.8-1.2-0.8-1.2,0c0.3,9.9,2.7,19.7,7,28.7C280.7,290.3,281.8,289.7,281.5,289z"/>
</g>
</svg>